<svg width="799" height="212" viewBox="0 0 799 212" fill="none" xmlns="http://www.w3.org/2000/svg">
<path d="M664 51.5H607.159L542 118.083L595.144 119.5L664 51.5Z" fill="#F9862B" stroke="#F8852A"/>
<path d="M536 119H510V0H551V104L536 119Z" fill="#F9862B"/>
<path d="M542 122H594.5L684 211.5H631.5L542 122Z" fill="#F9862B"/>
<path d="M536.5 121H510.5V192.5H551.5V137L536.5 121Z" fill="#F9862B"/>
<path d="M465 62.5H430V140C428.5 142.5 420 167 396.5 167C387.106 167 370.166 157.5 371.5 143V62.5H337C336.833 90.8333 336.6 148.3 337 151.5C337.5 155.5 337 165.572 345.5 176.5C356 190 371 193 382.5 194C394 195 405.5 190.5 411 188C416.556 185.474 426.5 178.5 430 173V192.5H465V62.5Z" fill="#637F8B"/>
<path d="M312 20.5H278.5V191H312V20.5Z" fill="#637F8B"/>
<path d="M99.5 122.5L162.5 21.5H119L81 91.5L42.5 21.5H0L64.5 122.5V191H99.5V122.5Z" fill="#617D88"/>
<path d="M198.5 61.5C235.227 61.5 265 91.2731 265 128C265 164.727 235.227 194.5 198.5 194.5C161.773 194.5 132 164.727 132 128C132 91.2731 161.773 61.5 198.5 61.5ZM198 90.5C179.775 90.5 165 107.065 165 127.5C165 147.935 179.775 164.5 198 164.5C216.225 164.5 231 147.935 231 127.5C231 107.065 216.225 90.5 198 90.5Z" fill="#637F8B"/>
<path d="M732.5 62.5C769.227 62.5 799 92.2731 799 129C799 165.727 769.227 195.5 732.5 195.5C695.773 195.5 666 165.727 666 129C666 92.2731 695.773 62.5 732.5 62.5ZM732 91.5C713.775 91.5 699 108.065 699 128.5C699 148.935 713.775 165.5 732 165.5C750.225 165.5 765 148.935 765 128.5C765 108.065 750.225 91.5 732 91.5Z" fill="#637F8B"/>
</svg>
